# xmcd
#
# Track frame offsets:
# 150
# 14527
# 30585
# 51370
# 62850
# 81847
#
# Disc length: 1364 seconds
#
#
# Revision: 0
# Processed by: cddbd v1.5.1PL0 Copyright (c) Steve Scherf et al.
# Submitted via: FreeRIP 2.30 
#
DISCID=4a055206
DTITLE=Motel Kings - All Right All Night 2
DYEAR=1900
DGENRE=Blues
TTITLE0=Higher Ground
TTITLE1=Thunderbird
TTITLE2=I Want You To Love Me
TTITLE3=Suger Coated Love 
TTITLE4=Angry Woman
TTITLE5=Automatic Woman
EXTD=
EXTT0=
EXTT1=
EXTT2=
EXTT3=
EXTT4=
EXTT5=
PLAYORDER=
